<svg id="Layer_1" data-name="Layer 1" xmlns="http://www.w3.org/2000/svg" viewBox="0 0 182.84 179.88"><defs><style>.cls-1{fill:#fff;}.cls-2{fill:#3c6591;}</style></defs><circle class="cls-1" cx="91.42" cy="89.94" r="48.32"/><path class="cls-2" d="M113.52,82.17c.32.84.61,1.66.93,2.47.47,1.19,1,2.37,1.44,3.56.64,1.57,1.32,3.13,1.94,4.71s1.11,2.9,1.6,4.37a21.23,21.23,0,0,1,.69,2.69,5.36,5.36,0,0,1,.08,2.22,2,2,0,0,0,0,.44c.21,0,.41,0,.61,0a9.3,9.3,0,0,1,5.73,2,14,14,0,0,1,1.13,1.05c.3.31.23.62-.14.83s-.58.31-.91.49a7.27,7.27,0,0,1,1.46,6.59,7.08,7.08,0,0,1-3.3,4.39,7,7,0,0,1-6.56.49,7.33,7.33,0,0,1-4.32-5L113,114c-.45.24-.74.14-.85-.35s-.15-1-.22-1.53c0-.09,0-.18-.05-.29l-1.32.24a7.76,7.76,0,0,1-1.26.16c-7.63,0-15.27,0-22.91,0a.94.94,0,0,1-.88-.46,6.45,6.45,0,0,0-.37-.54.51.51,0,0,0-.31-.19c-.57-.06-.57,0-.57.54a7.24,7.24,0,0,1-3.3,6.23,6.93,6.93,0,0,1-3.12,1.14A7.34,7.34,0,0,1,70,114.09a6.67,6.67,0,0,1-.37-2.8c0-.21-.05-.27-.26-.27H66.32a.63.63,0,0,1-.67-.84L66,109c0-.1,0-.2,0-.34H57.25a1,1,0,0,1-.42-.06.49.49,0,0,1-.31-.55.56.56,0,0,1,.49-.46h18.4c.4,0,.57-.11.59-.4s-.12-.46-.47-.47c-.88,0-1.76,0-2.64,0s-1.91,0-2.87,0-1.84,0-2.76,0c-.42,0-.46,0-.27-.42l1.11-2.19H61.9a1.48,1.48,0,0,1-.51-.09.45.45,0,0,1-.29-.58.45.45,0,0,1,.48-.39H81.17a1.05,1.05,0,0,0,.53-.11c.12-.08.25-.29.22-.4a.63.63,0,0,0-.34-.38,1.28,1.28,0,0,0-.52,0H70.23l-.36,0,0-.08c.29-.26.58-.54.89-.78a5.1,5.1,0,0,1,.86-.6,3.47,3.47,0,0,0,1.13-1.31l1.7-2.51c.06-.08.11-.17.16-.25a5.69,5.69,0,0,1-.89-.15,1.17,1.17,0,0,1-.87-1.21V93.25c0-.42,0-.43-.41-.43h-5.5c-.91,0-1.33-.41-1.33-1.32,0-1.31,0-2.63,0-3.94,0-.32-.1-.41-.41-.41H57.29a.72.72,0,0,1-.7-.3A.5.5,0,0,1,57,86.1a1.93,1.93,0,0,1,.34,0H75a.88.88,0,0,0,.53-.16.5.5,0,0,0,.12-.44c0-.12-.21-.22-.34-.29a1.14,1.14,0,0,0-.37,0H66.07c-.49,0-.49,0-.49-.49s0-1,0-1.52c0-.26-.1-.34-.35-.34-1.12,0-2.23,0-3.35,0a2.1,2.1,0,0,1-.43,0,.44.44,0,0,1-.37-.52.44.44,0,0,1,.45-.46c.18,0,.37,0,.56,0H72.28a2.37,2.37,0,0,0,.46,0,.41.41,0,0,0,.36-.47.4.4,0,0,0-.39-.4,2.36,2.36,0,0,0-.37,0H66c-.44,0-.45,0-.45-.45V76.33A1.12,1.12,0,0,1,66.87,75H82.05c1,0,1.34.39,1.34,1.33V91c0,.48,0,.48.47.48h3a7,7,0,0,1-.45-1,5.17,5.17,0,0,1-.28-1.44c0-1.13.12-2.25.18-3.37a2,2,0,0,0-.12-.46,4.67,4.67,0,0,1-.32-1,13,13,0,0,1,.33-3.17c.11-.65.17-1.31.29-2,.2-1.06.43-2.12.65-3.18A18.67,18.67,0,0,1,88.3,72.5a13,13,0,0,1,1.77-3c.24-.31.44-.66.65-1l-.11-.1a1.12,1.12,0,0,1-.92-1.1,21.28,21.28,0,0,1-.18-2.75,4.85,4.85,0,0,1,1.23-3.32,3.38,3.38,0,0,1,2.07-1.08,7.67,7.67,0,0,1,1.51-.1,5.56,5.56,0,0,1,3.24,1,3.91,3.91,0,0,1,1.57,2.93c0,.25,0,.51,0,.8L98,64.61l-2.88-.72a3.06,3.06,0,0,0-.66-.12c-.28,0-.58.22-.56.48a15.22,15.22,0,0,0,.23,2.14,1.89,1.89,0,0,0,1.17,1.25c1,.47,1.92,1,2.89,1.39.29.13.37.28.26.56s-.08.3-.12.45a1,1,0,0,1-1.28.65l-1.76-.57c-.24-.08-.4,0-.47.23a5.8,5.8,0,0,0-.17.72.42.42,0,0,0,.08.33c1.54,1.6,2.8,3.41,4.18,5.13.36.44.77.84,1.12,1.28a1.36,1.36,0,0,0,1,.44c1.31.19,2.63.3,3.93.48a7.76,7.76,0,0,1,2.39.48,2.35,2.35,0,0,0,.79.3,1.68,1.68,0,0,0,.86-.11c.52-.18,1.06-.32,1.59-.48.09,0,.2-.06.23-.13a4.83,4.83,0,0,1,2.72-2.12c1.07-.4,2.14-.78,3.23-1.14a10.94,10.94,0,0,1,1.26-.29.45.45,0,0,1,.54.42,13.86,13.86,0,0,1,.23,2c0,.93-.08,1.87-.14,2.81,0,.41-.1.82-.16,1.23a.5.5,0,0,1-.56.46l-3.13,0ZM95.75,79.51a2.32,2.32,0,0,0,0,.29,21.17,21.17,0,0,1-.51,4.42,3.24,3.24,0,0,1-1,1.82.74.74,0,0,0-.13.5c0,.06.18.14.29.16.72.18,1.45.33,2.17.5,1.27.31,2.55.58,3.8.94,1.61.46,3.21,1,4.8,1.5A3,3,0,0,1,107,93c-.11.87-.28,1.73-.43,2.59-.2,1.13-.39,2.25-.6,3.38-.16.86-.35,1.71-.52,2.57s-.29,1.62-.42,2.43c-.18,1.21-.34,2.41-.51,3.62a.29.29,0,0,0,.22.37c.34.1.68.23,1,.3.76.16,1.52.28,2.28.45a1.57,1.57,0,0,1,.73.36.39.39,0,0,0,.56.09,10.05,10.05,0,0,0,1.25-.78,6.7,6.7,0,0,0,2.17-2.76,11.13,11.13,0,0,0,.7-4.49c0-.62-.08-1.23-.16-1.85a15.66,15.66,0,0,0-.28-1.8c-.25-1.12-.55-2.24-.82-3.35-.33-1.32-.67-2.64-1-4-.2-.86-.38-1.73-.5-2.6a13.74,13.74,0,0,1,0-3.68c0-.3.11-.6.15-.79l-.89-.78a.52.52,0,0,0-.18-.1,5.3,5.3,0,0,0-.93-.3,2,2,0,0,0-1.11,0,3.9,3.9,0,0,1-1.82.41c-1.14,0-2.29,0-3.44-.1-.85,0-1.71-.11-2.56-.21a3.19,3.19,0,0,1-1.18-.32,16.84,16.84,0,0,1-1.84-1.23C96.53,80.18,96.17,79.86,95.75,79.51Zm5.66,19.06a1.14,1.14,0,0,1-.09-1.13s0-.1,0-.15c.16-.87.31-1.75.49-2.61.08-.35.08-.38-.29-.42l-2.92-.32c-.32,0-.65-.12-1-.15s-.84-.08-1.25-.11c.15.47.3.89.41,1.33a1.25,1.25,0,0,1-1.27,1.47c-.52,0-.92,0-1.2.6a20.63,20.63,0,0,0-1.51,4.08,23.3,23.3,0,0,0-.43,2.9,6.07,6.07,0,0,0,.14,2.36,4.87,4.87,0,0,0,4.26,3.49,30,30,0,0,0,3.42,0,.27.27,0,0,0,.19-.16c.08-.31.13-.63.19-.94s0-.34-.24-.34-.31-.13-.28-.36c.06-.46.11-.92.15-1.39.08-.87.15-1.75.24-2.62s.21-1.82.32-2.73c.07-.64.13-1.27.22-1.91.05-.36.13-.71.2-1.1Zm20.09,11a2.17,2.17,0,0,1,1.45,2.94,2.13,2.13,0,0,1-2.66,1.15,2.15,2.15,0,0,1-1.29-2.75s-.07,0-.09,0c-.51.26-1,.51-1.54.79a.38.38,0,0,0-.15.29,4.87,4.87,0,0,0,.53,1.6,3.77,3.77,0,0,0,6.94-2.72,3.77,3.77,0,0,0-1.42-2.21ZM79,111c0,.29,0,.53,0,.77a2.1,2.1,0,1,1-4.15-.5c0-.21,0-.28-.24-.27-.37,0-.75,0-1.12,0s-.33.09-.34.32a4.13,4.13,0,0,0,.23,1.67,3.56,3.56,0,0,0,2.53,2.31,3.75,3.75,0,0,0,4.73-4.07.31.31,0,0,0-.18-.22C80,111,79.5,111,79,111ZM68.43,91.32c0-.39-.32-.53-.51-.76Z"/><path class="cls-2" d="M58.86,94.55H67.4c.41,0,.56.1.63.41a.52.52,0,0,1-.47.66H50.33a.82.82,0,0,1-.55-.19.61.61,0,0,1-.12-.52c.05-.15.26-.26.42-.35s.22,0,.34,0Z"/><path class="cls-2" d="M62.43,99.17H55.15a.56.56,0,0,1-.55-.52.58.58,0,0,1,.5-.55H69.62a.6.6,0,0,1,.64.32.51.51,0,0,1-.41.75,1.61,1.61,0,0,1-.31,0Z"/></svg>