<svg id="Layer_1" data-name="Layer 1" xmlns="http://www.w3.org/2000/svg" viewBox="0 0 182.84 179.88"><defs><style>.cls-1{fill:#fff;}.cls-2{fill:#3c6591;}</style></defs><circle class="cls-1" cx="91.42" cy="89.94" r="48.32"/><path class="cls-2" d="M114.2,78.12a1.44,1.44,0,0,0,1.27-.85c.57-1.24,1.12-2.5,1.68-3.75l1.9-4.24,1.5-3.31,2.1-4.65a2,2,0,0,0,.28-1.52,1.42,1.42,0,0,0-1.21-1,1.28,1.28,0,0,0-1.35.6,15.48,15.48,0,0,0-.71,1.48l-1.58,3.6c-.3.68-.64,1.35-1,2-.64,1.42-1.27,2.85-1.91,4.27-.79,1.77-1.6,3.54-2.38,5.32A1.46,1.46,0,0,0,114.2,78.12Z"/><path class="cls-2" d="M132.8,86.75a1.42,1.42,0,0,0-2.28-.88c-2.39,1.79-4.77,3.58-7.17,5.35A8,8,0,0,0,120.84,94c-.41.82-.8,1.64-1.16,2.48a9.7,9.7,0,0,1-3.29,4.13l-6.81,5-3,2.24a.77.77,0,0,1-1.24-.36,1,1,0,0,1,.41-1.16l5.17-3.81a1.46,1.46,0,0,0,.39-2.09,1.43,1.43,0,0,0-2-.26l-7.06,5.2-2.64,1.95a.85.85,0,0,1-1,.05.86.86,0,0,1-.27-1,1.6,1.6,0,0,1,.48-.62c.75-.59,1.52-1.14,2.29-1.7l5.75-4.24c.57-.43,1.15-.84,1.7-1.3a1.36,1.36,0,0,0,.16-2,1.45,1.45,0,0,0-2-.25l-6,4.43-6.55,4.84a.76.76,0,0,1-1.24-.49,1,1,0,0,1,.47-1.09q1.8-1.3,3.58-2.64l6.11-4.54c.9-.67,1.81-1.31,2.72-2a1.43,1.43,0,0,0,.61-1.08,1.31,1.31,0,0,0-.67-1.32,1.46,1.46,0,0,0-1.67.1c-.55.39-1.08.79-1.62,1.19l-8.21,6.08-1.16.85a.85.85,0,0,1-1,.07.8.8,0,0,1-.28-.94,1.63,1.63,0,0,1,.51-.68c1.32-1,2.67-2,4-3l7.89-5.85,1.55-1.14a1.49,1.49,0,0,0,.48-1.8,1.37,1.37,0,0,0-1.74-.72,5.35,5.35,0,0,0-1.06.66c-.81.58-1.61,1.19-2.42,1.78a.62.62,0,0,1-1-.2l-.29-.42a.37.37,0,0,1,.1-.55c1.38-1,2.74-2,4.15-3a5.24,5.24,0,0,1,2.55-1c1.2-.09,2.4-.14,3.6-.16,1.49,0,3,0,4.46-.06a4.05,4.05,0,0,0,1.54-.33,11.17,11.17,0,0,0,1.69-1.07,44.11,44.11,0,0,0,5-4.2c.39-.37.74-.79,1.12-1.17l1.92-1.91,3.65-3.63a1.51,1.51,0,0,0,.36-1.71,1.44,1.44,0,0,0-2.39-.34c-1.52,1.51-3.06,3-4.56,4.56a49.67,49.67,0,0,1-7.45,6.52,1.94,1.94,0,0,1-.87.39c-2.26.07-4.52.13-6.78.13a9.37,9.37,0,0,0-5.15,1.37c-1.11.7-2.15,1.5-3.23,2.25-1.18.91-2.75,2.33-2.73,3.43v.06c0,.15,0,.29,0,.43A4.68,4.68,0,0,0,97.94,91l.19.24-2.87,2.13a4.26,4.26,0,0,0-.53.39.94.94,0,0,1-.1.1h0a1.23,1.23,0,0,1-.33.19,18,18,0,0,0-4.37,3.32l-.26.37a5,5,0,0,0-.8,2.33,3.68,3.68,0,0,0,1.31,2.87,1.27,1.27,0,0,1,.21.29,5.3,5.3,0,0,0,.52,4.16,3.38,3.38,0,0,0,1.36,1,4.3,4.3,0,0,0,1.5.28h.29a4.13,4.13,0,0,0,1.19-.35l.24-.12h.1c.17.27.31.56.5.81a3.7,3.7,0,0,0,3,1.47,4.71,4.71,0,0,0,1.6-.41,3.71,3.71,0,0,0,.69-.45l1.21-.9a3.16,3.16,0,0,0,.27-.3,2.93,2.93,0,0,0,3,2.56,5.48,5.48,0,0,0,1.31-.17,4.34,4.34,0,0,0,1.19-.65c.55-.43,1.11-.84,1.67-1.25.36-.26.72-.5,1.07-.77.64-.47,1.27-1,1.91-1.45s1.11-.78,1.66-1.18c1-.77,2.1-1.56,3.16-2.33a13.25,13.25,0,0,0,3.37-3.39,28.73,28.73,0,0,0,1.91-3.8,5.25,5.25,0,0,1,1.59-2.11c1-.73,2-1.49,3-2.24l2.45-1.86L132.36,88A1.24,1.24,0,0,0,132.8,86.75Z"/><path class="cls-2" d="M102.89,110.1a10.14,10.14,0,0,1-3.78,1.68c-3.55.34-4.28-2.26-4.28-2.26a7.52,7.52,0,0,1-3.74-.49c-2.07-.8-2.49-3.06-1.88-5.73-3-1.72-.65-6.3-.65-6.3a11.15,11.15,0,0,1,3.08-2.86H53.71c0,.72,0,1.43,0,2.14v8.87q0,4.13,0,8.25a1.75,1.75,0,0,0,1.86,1.9l7.83,0c.83,0,1.66,0,2.49,0l17.79,0c.66,0,1.31,0,2,0h18.16a1.74,1.74,0,0,0,1.89-1.89v-1.15a4.23,4.23,0,0,1-2.84-1.11Zm-.06,2.11v0ZM82.43,97a2.86,2.86,0,0,1-2.56,1.9A3,3,0,0,1,77,97Z"/></svg>