<svg id="Layer_1" data-name="Layer 1" xmlns="http://www.w3.org/2000/svg" viewBox="0 0 182.84 179.88"><defs><style>.cls-1{fill:#fff;}.cls-2{fill:#3c6591;}</style></defs><circle class="cls-1" cx="97.09" cy="85.33" r="48.32"/><path class="cls-2" d="M117,86c.63.62,1.25,1.23,1.89,1.82a.41.41,0,0,0,.34.07,3.62,3.62,0,0,1,4,1L133.65,99.3c1.57,1.56,3.12,3.14,4.7,4.7a3.55,3.55,0,0,1,.08,5.09c-.57.57-1.12,1.16-1.73,1.69a3.45,3.45,0,0,1-4.7-.16l-13.21-13.2-2.33-2.34c-.13-.13-.34-.29-.33-.42,0-.43-.34-.65-.46-1a3.57,3.57,0,0,1,0-2.26.53.53,0,0,0-.07-.41c-.59-.61-1.2-1.21-1.82-1.82A22.61,22.61,0,0,1,96,94.07a22.16,22.16,0,0,1-15.54-9.74A22.89,22.89,0,1,1,117,86ZM80.05,71.44A19.29,19.29,0,1,0,99.34,52.11,19.28,19.28,0,0,0,80.05,71.44Zm41.56,18.39-.08.07c0,.1,0,.22,0,.28-.14.22,0,.34.14.47L128,97c1.71,1.72,3.41,3.46,5.13,5.19.89.89,1.8,1.76,2.7,2.64.07.06.14.16.22.18a.35.35,0,0,0,.3,0,.33.33,0,0,0,.06-.29,1.52,1.52,0,0,0-.3-.37q-5.92-5.94-11.87-11.87Z"/><path class="cls-2" d="M99.32,55.37a16.3,16.3,0,0,1,8,2.18,15.68,15.68,0,0,1,6.14,6.39,11.83,11.83,0,0,1,.67,1.5,1.08,1.08,0,0,1-2,.75,14.54,14.54,0,0,0-1.72-3,14,14,0,0,0-3.09-3,13,13,0,0,0-4.47-2.1,11.41,11.41,0,0,0-4.65-.38,7,7,0,0,1-.91.08,1.15,1.15,0,0,1-1.16-1.06,1.12,1.12,0,0,1,1-1.14C97.84,55.48,98.58,55.43,99.32,55.37Z"/><path class="cls-2" d="M115.39,71a1.38,1.38,0,0,1-.52,1.3,1.12,1.12,0,0,1-1.75-.93c-.07-.69-.1-1.39-.12-2.09a1.1,1.1,0,0,1,2.16-.25C115.27,69.71,115.32,70.37,115.39,71Z"/><path class="cls-2" d="M72,79.6c-1.69.45-2.14,1.54-1.3,3.05.15.28.3.55.47.82q3.3,5.16,6.61,10.33a1.83,1.83,0,0,0,3.18.27c1.93-2.34,3.82-4.7,5.72-7.06a20.24,20.24,0,0,1-2.57-2.5c-1.25,1.51-2.5,3-3.75,4.53-.22.28-.49.52-.81.86-1.57-2.47-3.05-4.81-4.66-7.33l6.7-1.72a20.52,20.52,0,0,1-1.41-3.34L79,77.82C76.63,78.41,74.31,79,72,79.6Z"/><path class="cls-2" d="M79.76,91.76a1.26,1.26,0,0,1-2.19-.19L73,84.44c-.12-.19-.22-.38-.33-.57-.58-1-.27-1.8.9-2.1,1.6-.43,3.21-.82,4.81-1.23l.84-.22a13.83,13.83,0,0,1,.13-8.77A25.2,25.2,0,0,0,63.23,94.61a.93.93,0,0,0,.65,1,22.76,22.76,0,0,0,6,1.81,24.77,24.77,0,0,0,21.59-6.52c.31-.29.61-.6.9-.91a13.82,13.82,0,0,1-8.62-3.09C82.41,88.51,81.1,90.14,79.76,91.76Z"/><path class="cls-2" d="M89.11,94.15c-1.28.88-2.59,1.7-3.9,2.56a18.89,18.89,0,0,0,3.31,5.05c3.37-2.9,5.32-7.57,4.28-10.31C91.57,92.36,90.36,93.29,89.11,94.15Z"/><path class="cls-2" d="M78.8,88.88c.22-.23.4-.4.55-.59.87-1,1.73-2.09,2.59-3.13a14.2,14.2,0,0,1-1.74-2.53l-4.62,1.19C76.68,85.56,77.71,87.17,78.8,88.88Z"/><path class="cls-2" d="M60.94,94.17a7.35,7.35,0,0,0-9.65-2.7c-.37.17-.47.36-.19.77.87,1.29,1.65,2.65,2.52,3.94a4.17,4.17,0,0,0,2.83,1.94,20.78,20.78,0,0,0,2.25.12c0,.05,0,.11,0,.14s-.16.29-.25.43a4.06,4.06,0,0,0-.54,3.64A11,11,0,0,0,59,104.61c.71,1.16,1.46,2.29,2.24,3.51l1-.94a7.16,7.16,0,0,0,1.44-8.63C62.84,97.05,61.87,95.62,60.94,94.17Z"/><path class="cls-2" d="M86.53,63c-1.16.28-2.28.49-3.36.82s-1.9.62-2.81,1a20,20,0,0,0-.19,12.7l1.5-.38a1.82,1.82,0,0,1,2.45,1.29c.24,1-.34,1.86-1.56,2.18l-1,.25a20.15,20.15,0,0,0,2.52,3.66c.23-.29.47-.57.71-.86A1.74,1.74,0,0,1,86.93,83a1.63,1.63,0,0,1,1.14,1.79,2.23,2.23,0,0,1-.42,1c-.33.4-.66.81-1,1.22a19.92,19.92,0,0,0,12.48,4.46c1.08-1.18,2.08-2.47,3.19-3.72C89.68,84.05,84.43,75.94,86.53,63Z"/><path class="cls-2" d="M108.29,65.68c-1.8-.6-3.55-1.41-5.37-1.94a35.65,35.65,0,0,0-11.21-1.3,1.33,1.33,0,0,0-1.43,1.11c-.22,1.08-.49,2.16-.62,3.25a14.79,14.79,0,0,0,1,7.85,13.49,13.49,0,0,0,4.66,6c2.37,2.25,5.25,2.83,8.19,3.29a1.13,1.13,0,0,0,1.4-.76c.79-1.88,1.68-3.73,2.35-5.66A33.73,33.73,0,0,0,109,66.74.93.93,0,0,0,108.29,65.68Zm-4.05,9.37a3.51,3.51,0,1,1-5.57-4.28,3.51,3.51,0,0,1,5.57,4.28Z"/></svg>