<svg id="Layer_1" data-name="Layer 1" xmlns="http://www.w3.org/2000/svg" viewBox="0 0 182.84 179.88"><defs><style>.cls-1{fill:#fff;}.cls-2{fill:#3c6591;}</style></defs><circle class="cls-1" cx="86.19" cy="91.11" r="48.32"/><path class="cls-2" d="M83.35,57.45c-.28-.61-.51-1.15-.76-1.69s-.33-.66.34-.94l6.81-2.75,5.51-2.26c.83-.34,1.67-.67,2.5-1,.25-.11.36,0,.46.21.66,1.43,1.31,2.86,2,4.29s1.21,2.56,1.8,3.84a.48.48,0,0,0,.52.32q1.76,0,3.51,0A2.2,2.2,0,0,1,108.17,59a2.28,2.28,0,0,1,.13.78c0,1.5,0,3,0,4.5,0,2.08,0,4.17,0,6.25a4.24,4.24,0,0,0,.56,1.46l3.43,7.38a1,1,0,0,1,.05.22c-1.11.49-2.2,1-3.31,1.46-.75.32-.76.31-.76,1.13v28.53c0,2.06,0,4.12,0,6.18a2.28,2.28,0,0,1-2.42,2.42H63.81a2.27,2.27,0,0,1-2.23-1.23,2.65,2.65,0,0,1-.27-1.18c0-1.61,0-3.21,0-4.82,0-.47,0-.47-.5-.46-1.5,0-3,0-4.5.07a13.54,13.54,0,0,0-2.1.26.47.47,0,0,0-.36.65c.15.49.35,1,.53,1.45.31.84.67,1.67.91,2.53a1.63,1.63,0,0,1-.81,1.86,1.53,1.53,0,0,1-1.92-.07,2.17,2.17,0,0,1-.55-1,9.67,9.67,0,0,1-.12-1.34,5,5,0,0,0-.14-.77.81.81,0,0,0-.74-.64.94.94,0,0,0-.83.58,8.66,8.66,0,0,0-.48,1.08,1.75,1.75,0,0,1-1.82,1.13,1.54,1.54,0,0,1-1.42-1,1.66,1.66,0,0,1,.08-1.5c.36-.6.76-1.18,1.15-1.76a.86.86,0,0,0,.1-1,.84.84,0,0,0-.9-.37c-.37,0-.75.07-1.12.07a1.29,1.29,0,0,1-1.3-1.11,1.26,1.26,0,0,1,1-1.47,5.47,5.47,0,0,1,1.76,0c1.49.32,3,.71,4.44,1.09a.88.88,0,0,0,1.11-.68,35.48,35.48,0,0,1,6.73-13.16c.46-.56.95-1.1,1.45-1.62a1,1,0,0,0,.33-.81q0-7.93,0-15.86,0-9.15,0-18.29a2.26,2.26,0,0,1,1.19-2.21,2.7,2.7,0,0,1,1.22-.28c6.32,0,12.65,0,19,0Zm22.88,24.86a1.62,1.62,0,0,0-.24.08l-4.26,1.87L97,86.34c-.24.1-.35.07-.45-.18-.34-.77-.71-1.54-1.06-2.31q-1.38-3-2.74-5.95c-.84-1.81-1.66-3.63-2.5-5.45S88.58,68.83,87.75,67c-1.09-2.37-2.18-4.73-3.26-7.11a.57.57,0,0,0-.62-.39h-20c-.54,0-.54,0-.54.55V92.63l.32-.21a24.15,24.15,0,0,1,11.87-5.25,13.44,13.44,0,0,1,3.89.11A12.61,12.61,0,0,0,77.9,97.57a13.35,13.35,0,0,0,6.49,8.15c-.06.06-.09.13-.14.15l-1.93.94c-.19.09-.28,0-.36-.16-.15-.41-.33-.82-.51-1.23l-.76.28-.21.1c-.52.23-.51.22-.29.77.46,1.18.9,2.37,1.38,3.55.12.29,0,.43-.21.52-1.27.51-2.54,1-3.81,1.51a.45.45,0,0,1-.38,0,.45.45,0,0,1-.08-.38c.21-.81.43-1.62.66-2.42.44-1.59.89-3.19,1.34-4.78.08-.3,0-.45-.32-.52s-.46-.11-.69-.18c-.42-.13-.49-.08-.61.35-.41,1.55-.82,3.1-1.26,4.64a.67.67,0,0,1-.41.41c-1.52.39-3,.79-4.59,1.12-1.23.25-2.48.43-3.72.61s-2.48.32-3.72.44c-.32,0-.42.11-.42.44,0,1.47,0,3,0,4.42,0,1-.18.94.93.94h41.49c.22,0,.44,0,.45-.31,0-.68.07-1.37.07-2.06,0-.93-.06-1.85-.06-2.78q0-14.16,0-28.33ZM75.76,105.17c-.08-.23-.16-.46-.23-.7-.2-.69-.2-.69-.89-.7h-.2a1.29,1.29,0,0,1-1.08-1.93,6.57,6.57,0,0,1,.93-1c-.15-.41-.32-.89-.49-1.38-.17,0-.3.06-.43.07a1.52,1.52,0,0,1-1.44-.66,1.19,1.19,0,0,1,0-1.45,2.54,2.54,0,0,1,.67-.59c.18-.12.2-.2.13-.38a6.74,6.74,0,0,1-.3-.86c-.07-.3-.16-.4-.51-.33a1.47,1.47,0,0,1-1.61-.83,1.42,1.42,0,0,1,.44-1.62c.19-.16.48-.31.52-.51s-.13-.5-.22-.75a1.76,1.76,0,0,1-.1-.3c0-.28-.2-.29-.43-.19a3.27,3.27,0,0,0-1.93,2.8,2.88,2.88,0,0,0,1.61,2.67c.21.12.26.2.15.42a2.83,2.83,0,0,0,.83,3.53c.23.17.48.32.71.47-.58,1.72-.39,2.85.64,3.72A3.09,3.09,0,0,0,75.76,105.17Zm14-45.87c-.39.18-.72.34-1.06.48s-.39.24-.24.56c.77,1.63,1.52,3.27,2.27,4.9L93,70.18l1.73,3.76c.4-.19.76-.38,1.14-.52s.3-.25.19-.48c-.82-1.78-1.65-3.55-2.47-5.33-.92-2-1.85-4-2.77-6C90.47,60.84,90.12,60.08,89.75,59.3Zm-19.3,45.93c-.12-.35-.26-.68-.34-1s-.21-.46-.6-.39a1.38,1.38,0,0,1-1.09-2.46c.58-.47.58-.47.31-1.17a2.19,2.19,0,0,1-.12-.33c0-.32-.18-.37-.49-.31a1.51,1.51,0,0,1-1.63-.8,1.56,1.56,0,0,1,.44-1.66c.18-.16.47-.29.51-.48s-.13-.47-.2-.71-.09-.28-.14-.42-.17-.22-.36-.15a3.35,3.35,0,0,0-2,2.65,2.88,2.88,0,0,0,1.59,2.84c.24.14.25.23.15.46a3,3,0,0,0-.27,1,3.08,3.08,0,0,0,4,3.12C70.31,105.35,70.37,105.28,70.45,105.23Zm-7.06.87c.18,0,.35,0,.52,0s.46-.13.37-.45-.17-.55-.23-.84-.16-.42-.51-.35a1.68,1.68,0,0,1-1.62-.7,1.26,1.26,0,0,1,.35-1.65.87.87,0,0,0,.34-1.35,1.39,1.39,0,0,1-.06-.19c-.18-.45-.18-.45-.61-.23l-.14.08a3.1,3.1,0,0,0-1.4,3.89A3,3,0,0,0,63.39,106.1Zm42.79-39.9,0,0V64.6c0-1.54,0-3.08,0-4.62,0-.34-.09-.48-.45-.47-.66,0-1.33,0-2,0h-.69ZM98,77.28c-.43.19-.78.36-1.15.5s-.29.29-.18.52l.47,1,.54,1.17L98.79,80c.18-.08.32-.18.21-.42C98.66,78.86,98.33,78.1,98,77.28Z"/><path class="cls-2" d="M119,100.44c-.3.08-.58-.14-.87-.47a21.63,21.63,0,0,1-4-6.54A19.77,19.77,0,0,1,112.93,88a.64.64,0,0,1,.45-.72c.75-.36,1.5-.72,2.24-1.11a.38.38,0,0,1,.52.08,25.86,25.86,0,0,1,3.39,4.14,20.37,20.37,0,0,1,2.31,4.47c.39,1.11.67,2.25,1,3.39a.64.64,0,0,1-.13.49A5,5,0,0,1,119,100.44Z"/><path class="cls-2" d="M114.93,84.65a.92.92,0,0,1-.23.2l-1.84.91c-.24.12-.39.13-.53-.17-.5-1.08-1-2.14-1.55-3.21-.11-.22-.07-.32.16-.42.64-.27,1.27-.57,1.92-.84a.38.38,0,0,1,.35.08c.57,1.1,1.12,2.21,1.67,3.32A.7.7,0,0,1,114.93,84.65Z"/><path class="cls-2" d="M79,94.18a10.84,10.84,0,0,1,2-6.37.51.51,0,0,1,.46-.16,31.62,31.62,0,0,1,13.23,7c.33.28.61.63.94.91s.22.47.07.74a15.4,15.4,0,0,1-2.61,3.24,33.67,33.67,0,0,1-6.68,5.08.74.74,0,0,1-.6,0,12,12,0,0,1-6-6.16A11.49,11.49,0,0,1,79,94.18Zm6.32.91a1.85,1.85,0,0,0,1.82,1.79A1.78,1.78,0,0,0,89,95.09a1.83,1.83,0,0,0-1.77-1.83A1.89,1.89,0,0,0,85.36,95.09Z"/><path class="cls-2" d="M76,86.07a23.45,23.45,0,0,0-11.56,4.44l-.08-.1c.29-.45.55-.92.86-1.35,1.11-1.53,2.25-3,3.36-4.57a1.39,1.39,0,0,1,1.78-.5l5.27,1.88A2.64,2.64,0,0,1,76,86.07Z"/><path class="cls-2" d="M76.49,70.69c.09-.4.17-.8.26-1.19.33-1.38.65-2.76,1-4.14.06-.26.1-.51.48-.35a8.71,8.71,0,0,1,3.47,2.64l-5.1,3.12Z"/><path class="cls-2" d="M66.24,72,72,73.45v.13l-1.6,1c-1,.63-2,1.24-3,1.87-.4.25-.48.22-.64-.23a8.26,8.26,0,0,1-.51-3.94C66.19,72.21,66.21,72.15,66.24,72Z"/><path class="cls-2" d="M71.23,65.14a8.18,8.18,0,0,1,4.57-.73c-.46,2-.91,3.86-1.35,5.75l-.12,0Z"/><path class="cls-2" d="M69.43,66.25l3.14,5.12c-.36-.06-.61-.09-.85-.15L66.94,70c-.07,0-.19-.21-.16-.27A8.33,8.33,0,0,1,69.43,66.25Z"/></svg>